# xmcd CD database file
#
# Track frame offsets:
#	150
#	14635
#	28210
#	40330
#	52547
#	63325
#	83617
#	104755
#	120267
#	137322
#	159952
#	169882
#	187182
#	204190
#
# Disc length: 2981 seconds
#
# Revision: 0
# Processed by: cddbd v1.5.1PL2 Copyright (c) Steve Scherf et al.
# Submitted via: CDex 1.51
#
DISCID=af0ba30e
DTITLE=PURIFICATION - Judgement Day
DYEAR=2003
DGENRE=Hardcore
TTITLE0=Warpaint
TTITLE1=Afraid Of This World
TTITLE2=Lex Talionis
TTITLE3=The Blind Leading The Blind
TTITLE4=Temper 2001
TTITLE5=Holy War
TTITLE6=Blood Pits
TTITLE7=Cleansing
TTITLE8=Abyss Descent
TTITLE9=Legion
TTITLE10=Heritage Of Blood
TTITLE11=Falling Into Obscurity
TTITLE12=The Great Enoch
TTITLE13=Purified In Blood
EXTD=YEAR: 2003
EXTT0=
EXTT1=
EXTT2=
EXTT3=
EXTT4=
EXTT5=
EXTT6=
EXTT7=
EXTT8=
EXTT9=
EXTT10=
EXTT11=
EXTT12=
EXTT13=
PLAYORDER=
